inDegrees=no
num_controls=7
num_derivatives=13
num_iterations=117
num_multipliers=7
num_parameters=0
num_slacks=7
num_states=26
objective=0.504582
objective_accelerations=0.001321
objective_balance=0.002073
objective_effort=0.003742
objective_height=0.475106
objective_ligament=0.022340
solver_duration=1582.427193
status=Solve_Succeeded
success=true
DataType=double
version=3
OpenSimVersion=4.5
endheader
time	/jointset/ground_pelvis/pelvis_tilt/value	/jointset/ground_pelvis/pelvis_tx/value	/jointset/ground_pelvis/pelvis_ty/value	/jointset/hip_l/hip_flexion_l/value	/jointset/hip_l/hip_adduction_l/value	/jointset/hip_l/hip_rotation_l/value	/jointset/back/lumbar_extension/value	/jointset/patellofemoral_l/patellar_flexion_l/value	/jointset/knee_l/knee_flexion_l/value	/jointset/knee_l/knee_adduction_l/value	/jointset/knee_l/knee_rotation_l/value	/jointset/ankle_l/ankle_angle_l/value	/jointset/subtalar_l/subtalar_angle_l/value	/jointset/ground_pelvis/pelvis_tilt/speed	/jointset/ground_pelvis/pelvis_tx/speed	/jointset/ground_pelvis/pelvis_ty/speed	/jointset/hip_l/hip_flexion_l/speed	/jointset/hip_l/hip_adduction_l/speed	/jointset/hip_l/hip_rotation_l/speed	/jointset/back/lumbar_extension/speed	/jointset/patellofemoral_l/patellar_flexion_l/speed	/jointset/knee_l/knee_flexion_l/speed	/jointset/knee_l/knee_adduction_l/speed	/jointset/knee_l/knee_rotation_l/speed	/jointset/ankle_l/ankle_angle_l/speed	/jointset/subtalar_l/subtalar_angle_l/speed	/forceset/tau_hip_flexion_l	/forceset/tau_hip_adduction_l	/forceset/tau_hip_rotation_l	/forceset/tau_knee_flexion_l	/forceset/tau_ankle_angle_l	/forceset/tau_subtalar_angle_l	/forceset/tau_lumbar_extension	lambda_cid13_p0	lambda_cid13_p1	lambda_cid13_p2	lambda_cid13_p3	lambda_cid13_p4	lambda_cid13_p5	lambda_cid14_p0	/jointset/ground_pelvis/pelvis_tilt/accel	/jointset/ground_pelvis/pelvis_tx/accel	/jointset/ground_pelvis/pelvis_ty/accel	/jointset/hip_l/hip_flexion_l/accel	/jointset/hip_l/hip_adduction_l/accel	/jointset/hip_l/hip_rotation_l/accel	/jointset/back/lumbar_extension/accel	/jointset/patellofemoral_l/patellar_flexion_l/accel	/jointset/knee_l/knee_flexion_l/accel	/jointset/knee_l/knee_adduction_l/accel	/jointset/knee_l/knee_rotation_l/accel	/jointset/ankle_l/ankle_angle_l/accel	/jointset/subtalar_l/subtalar_angle_l/accel	gamma_cid13_p0	gamma_cid13_p1	gamma_cid13_p2	gamma_cid13_p3	gamma_cid13_p4	gamma_cid13_p5	gamma_cid14_p0
1	-0.1051626535540335	0.1156062639973739	0.8934724359008482	0.2065400837528231	-0.3218523045470911	-0.5480827319472125	-0.1268059448898814	0.07847098463061908	0.07847098463060623	-0.174531547748534	-0.1742838502040555	-0.01226012049420197	0.03547354559806686	-0.04903720731989127	0.02821539899921037	-0.002523447955836047	0.0117782948534979	0.002056735524908928	-0.009406200218005201	0.08223538420489712	-0.009107077162439669	-0.009107077162437111	7.919964032343789e-05	-1.592711478749299e-05	0.02744287572046432	0.01829753571409711	-0.02267417467301932	0.08149862263259572	-0.01415658691852967	-0.04772155772363098	0.002271557795103187	-0.04805062556218405	0.05711563307905555	-36.74644140914367	18.24345748712561	7.103093233554294	7.792350994460494	-546.6866489909186	-24.74880211922072	-41.71340153637085	0.1000195519522198	-0.0989252204478749	0.007906349471215051	-0.009977177513771118	0.01983286535455684	-0.003813058990221319	0.1694586241919271	-0.06316650706051852	-0.06316650706052651	0.001971568212128188	-0.0007912665132832567	-0.1480211487020267	-0.06271224354554079	7.719050762477855e-13	4.044370767379251e-10	-1.639449166804559e-10	1.384683254248781e-10	-1.609670007358547e-10	6.332505954890612e-10	1.63077570249593e-11
1.01	-0.1056480198100846	0.1158834630144008	0.8934475962352921	0.2066574073142655	-0.3218307510044722	-0.5481770048286497	-0.1259751484213824	0.07837681771653286	0.078376817716499	-0.1745306366289063	-0.174284093260568	-0.01199307265144406	0.03565338990949161	-0.04803465548906934	0.02722362260161397	-0.00244425114666064	0.01168597296818303	0.002253959693852157	-0.009448247494791149	0.08392075377703906	-0.009726258436174284	-0.009726258436173356	0.0001029207898867126	-3.287823387286993e-05	0.02596581108370463	0.01767068686307328	-0.02264157004518298	0.08164895124779169	-0.01413318434381685	-0.04750446991338735	0.001914517822658625	-0.04809183972191351	0.05699950045983641	-36.86043144210049	18.27580753079564	7.104227321034518	7.803905886396821	-546.6825522063967	-24.7078222226926	-41.71179114622747	0.1005812597864788	-0.09942109507496659	0.007961406599043895	-0.008926368758780084	0.01966521632733121	-0.004381256905146888	0.1676027661046672	-0.06128685578260318	-0.06128685578277876	0.002556878922179678	-0.002176159344433095	-0.1476813824906186	-0.06276719857793826	-3.326892171396822e-11	3.046551840399049e-10	-8.823976406860702e-11	1.26128570052498e-10	-2.063958064357169e-10	4.032539858634112e-10	1.198871907172223e-11
1.02	-0.106123318895605	0.1161507208183202	0.8934235555498178	0.2067737943219539	-0.3218072256154283	-0.5482716943218419	-0.1251275929286726	0.07827646040597379	0.07827646040604269	-0.1745294913996145	-0.1742845116533481	-0.01174082190731813	0.03582694653386628	-0.04702377321262795	0.02622715637770584	-0.002363651939474955	0.01159098409419533	0.002451104809337834	-0.009489522566885511	0.0855871890443264	-0.01034515644002625	-0.0103451564400269	0.0001260215631887517	-5.099434248015378e-05	0.02448345599381849	0.01703999830415232	-0.02260896541693574	0.0817992798629457	-0.01410978176823704	-0.04728738210322665	0.001557477850178497	-0.04813305388171948	0.05688336784103412	-36.97508642559544	18.30810177801468	7.105567025415818	7.822985253823758	-546.6845623351331	-24.66822939041253	-41.71007781242319	0.1016856410762078	-0.09986318571028295	0.008186829073274518	-0.01051057524835637	0.01981705466303542	-0.003658618051825617	0.1656717632210948	-0.06310985308396522	-0.06310985308396244	0.001847492959876062	-0.001024264417610821	-0.149079239327372	-0.06348018512501426	-3.938627171260124e-12	3.49178618231278e-10	-9.801873106855381e-11	1.314248097170985e-10	-8.593126906200953e-11	5.387140705764682e-10	6.818144591142899e-12
1.03	-0.1065884752152696	0.1164079960538587	0.8934003272250998	0.2068892204486646	-0.3217817294971805	-0.5483667903719039	-0.124263469468444	0.07816991726426717	0.07816991726420618	-0.1745281173200019	-0.1742851141611207	-0.01150341359358339	0.03599418114612575	-0.04600682653315542	0.02522765919265359	-0.002281840846478784	0.01149399617694137	0.002648083340712259	-0.009529323531577014	0.08723410796058313	-0.01096324517260898	-0.01096324517260996	0.0001488147428661468	-6.941315577178517e-05	0.02299808808386977	0.01640670709937359	-0.02252461799823669	0.08188541808428755	-0.01410123317487674	-0.04717258531981043	0.001345851799645018	-0.04818714683176231	0.05672758373043526	-37.04331857296284	18.33968047457806	7.10494250983611	7.811551013907204	-546.679392328257	-24.63235008719729	-41.70826208437634	0.1017988116834085	-0.1000276882258425	0.008204081062066187	-0.009329660513357776	0.0196329667012779	-0.004086230194019468	0.1636926997761576	-0.06112437327396174	-0.06112437327395828	0.002498297818900123	-0.002236598861126491	-0.1482833561472538	-0.06328619543366884	2.603831146668224e-11	3.951745557582581e-10	-1.086699850033153e-10	1.369010085147295e-10	3.622605752673526e-11	6.779033052317589e-10	1.638880962325379e-12
